%TF.GenerationSoftware,KiCad,Pcbnew,10.0.5*%
%TF.CreationDate,2026-08-09T17:27:45-07:00*%
%TF.ProjectId,Macintosh-Plus-USB-Adapter,4d616369-6e74-46f7-9368-2d506c75732d,rev?*%
%TF.SameCoordinates,Original*%
%TF.FileFunction,Legend,Bot*%
%TF.FilePolarity,Positive*%
%FSLAX46Y46*%
G04 Gerber Fmt 4.6, Leading zero omitted, Abs format (unit mm)*
G04 Created by KiCad (PCBNEW 10.0.5) date 2026-08-09 17:27:45*
%MOMM*%
%LPD*%
G01*
G04 APERTURE LIST*
%ADD10C,0.300000*%
%ADD11C,0.150000*%
%ADD12C,0.120000*%
G04 APERTURE END LIST*
D10*
X90945489Y-107800828D02*
X90945489Y-109300828D01*
X90945489Y-107872257D02*
X90802632Y-107800828D01*
X90802632Y-107800828D02*
X90516917Y-107800828D01*
X90516917Y-107800828D02*
X90374060Y-107872257D01*
X90374060Y-107872257D02*
X90302632Y-107943685D01*
X90302632Y-107943685D02*
X90231203Y-108086542D01*
X90231203Y-108086542D02*
X90231203Y-108515114D01*
X90231203Y-108515114D02*
X90302632Y-108657971D01*
X90302632Y-108657971D02*
X90374060Y-108729400D01*
X90374060Y-108729400D02*
X90516917Y-108800828D01*
X90516917Y-108800828D02*
X90802632Y-108800828D01*
X90802632Y-108800828D02*
X90945489Y-108729400D01*
X89588346Y-108800828D02*
X89588346Y-107300828D01*
X89445489Y-108229400D02*
X89016917Y-108800828D01*
X89016917Y-107800828D02*
X89588346Y-108372257D01*
X97972562Y-109040917D02*
X97972562Y-107540917D01*
X97972562Y-107540917D02*
X97472562Y-108612346D01*
X97472562Y-108612346D02*
X96972562Y-107540917D01*
X96972562Y-107540917D02*
X96972562Y-109040917D01*
X95615419Y-109040917D02*
X95615419Y-108255203D01*
X95615419Y-108255203D02*
X95686847Y-108112346D01*
X95686847Y-108112346D02*
X95829704Y-108040917D01*
X95829704Y-108040917D02*
X96115419Y-108040917D01*
X96115419Y-108040917D02*
X96258276Y-108112346D01*
X95615419Y-108969489D02*
X95758276Y-109040917D01*
X95758276Y-109040917D02*
X96115419Y-109040917D01*
X96115419Y-109040917D02*
X96258276Y-108969489D01*
X96258276Y-108969489D02*
X96329704Y-108826631D01*
X96329704Y-108826631D02*
X96329704Y-108683774D01*
X96329704Y-108683774D02*
X96258276Y-108540917D01*
X96258276Y-108540917D02*
X96115419Y-108469489D01*
X96115419Y-108469489D02*
X95758276Y-108469489D01*
X95758276Y-108469489D02*
X95615419Y-108398060D01*
X94258276Y-108969489D02*
X94401133Y-109040917D01*
X94401133Y-109040917D02*
X94686847Y-109040917D01*
X94686847Y-109040917D02*
X94829704Y-108969489D01*
X94829704Y-108969489D02*
X94901133Y-108898060D01*
X94901133Y-108898060D02*
X94972561Y-108755203D01*
X94972561Y-108755203D02*
X94972561Y-108326631D01*
X94972561Y-108326631D02*
X94901133Y-108183774D01*
X94901133Y-108183774D02*
X94829704Y-108112346D01*
X94829704Y-108112346D02*
X94686847Y-108040917D01*
X94686847Y-108040917D02*
X94401133Y-108040917D01*
X94401133Y-108040917D02*
X94258276Y-108112346D01*
D11*
X96218038Y-103164476D02*
X95218038Y-103164476D01*
X95218038Y-103164476D02*
X95218038Y-103402571D01*
X95218038Y-103402571D02*
X95265657Y-103545428D01*
X95265657Y-103545428D02*
X95360895Y-103640666D01*
X95360895Y-103640666D02*
X95456133Y-103688285D01*
X95456133Y-103688285D02*
X95646609Y-103735904D01*
X95646609Y-103735904D02*
X95789466Y-103735904D01*
X95789466Y-103735904D02*
X95979942Y-103688285D01*
X95979942Y-103688285D02*
X96075180Y-103640666D01*
X96075180Y-103640666D02*
X96170419Y-103545428D01*
X96170419Y-103545428D02*
X96218038Y-103402571D01*
X96218038Y-103402571D02*
X96218038Y-103164476D01*
X96218038Y-104688285D02*
X96218038Y-104116857D01*
X96218038Y-104402571D02*
X95218038Y-104402571D01*
X95218038Y-104402571D02*
X95360895Y-104307333D01*
X95360895Y-104307333D02*
X95456133Y-104212095D01*
X95456133Y-104212095D02*
X95503752Y-104116857D01*
X96454819Y-99333333D02*
X95978628Y-99000000D01*
X96454819Y-98761905D02*
X95454819Y-98761905D01*
X95454819Y-98761905D02*
X95454819Y-99142857D01*
X95454819Y-99142857D02*
X95502438Y-99238095D01*
X95502438Y-99238095D02*
X95550057Y-99285714D01*
X95550057Y-99285714D02*
X95645295Y-99333333D01*
X95645295Y-99333333D02*
X95788152Y-99333333D01*
X95788152Y-99333333D02*
X95883390Y-99285714D01*
X95883390Y-99285714D02*
X95931009Y-99238095D01*
X95931009Y-99238095D02*
X95978628Y-99142857D01*
X95978628Y-99142857D02*
X95978628Y-98761905D01*
X95550057Y-99714286D02*
X95502438Y-99761905D01*
X95502438Y-99761905D02*
X95454819Y-99857143D01*
X95454819Y-99857143D02*
X95454819Y-100095238D01*
X95454819Y-100095238D02*
X95502438Y-100190476D01*
X95502438Y-100190476D02*
X95550057Y-100238095D01*
X95550057Y-100238095D02*
X95645295Y-100285714D01*
X95645295Y-100285714D02*
X95740533Y-100285714D01*
X95740533Y-100285714D02*
X95883390Y-100238095D01*
X95883390Y-100238095D02*
X96454819Y-99666667D01*
X96454819Y-99666667D02*
X96454819Y-100285714D01*
X87454819Y-93166666D02*
X88169104Y-93166666D01*
X88169104Y-93166666D02*
X88311961Y-93119047D01*
X88311961Y-93119047D02*
X88407200Y-93023809D01*
X88407200Y-93023809D02*
X88454819Y-92880952D01*
X88454819Y-92880952D02*
X88454819Y-92785714D01*
X88454819Y-93642857D02*
X87454819Y-93642857D01*
X87454819Y-93642857D02*
X87454819Y-94023809D01*
X87454819Y-94023809D02*
X87502438Y-94119047D01*
X87502438Y-94119047D02*
X87550057Y-94166666D01*
X87550057Y-94166666D02*
X87645295Y-94214285D01*
X87645295Y-94214285D02*
X87788152Y-94214285D01*
X87788152Y-94214285D02*
X87883390Y-94166666D01*
X87883390Y-94166666D02*
X87931009Y-94119047D01*
X87931009Y-94119047D02*
X87978628Y-94023809D01*
X87978628Y-94023809D02*
X87978628Y-93642857D01*
X88454819Y-95166666D02*
X88454819Y-94595238D01*
X88454819Y-94880952D02*
X87454819Y-94880952D01*
X87454819Y-94880952D02*
X87597676Y-94785714D01*
X87597676Y-94785714D02*
X87692914Y-94690476D01*
X87692914Y-94690476D02*
X87740533Y-94595238D01*
X96359580Y-94833333D02*
X96407200Y-94785714D01*
X96407200Y-94785714D02*
X96454819Y-94642857D01*
X96454819Y-94642857D02*
X96454819Y-94547619D01*
X96454819Y-94547619D02*
X96407200Y-94404762D01*
X96407200Y-94404762D02*
X96311961Y-94309524D01*
X96311961Y-94309524D02*
X96216723Y-94261905D01*
X96216723Y-94261905D02*
X96026247Y-94214286D01*
X96026247Y-94214286D02*
X95883390Y-94214286D01*
X95883390Y-94214286D02*
X95692914Y-94261905D01*
X95692914Y-94261905D02*
X95597676Y-94309524D01*
X95597676Y-94309524D02*
X95502438Y-94404762D01*
X95502438Y-94404762D02*
X95454819Y-94547619D01*
X95454819Y-94547619D02*
X95454819Y-94642857D01*
X95454819Y-94642857D02*
X95502438Y-94785714D01*
X95502438Y-94785714D02*
X95550057Y-94833333D01*
X96454819Y-95785714D02*
X96454819Y-95214286D01*
X96454819Y-95500000D02*
X95454819Y-95500000D01*
X95454819Y-95500000D02*
X95597676Y-95404762D01*
X95597676Y-95404762D02*
X95692914Y-95309524D01*
X95692914Y-95309524D02*
X95740533Y-95214286D01*
%TO.C,D1*%
D12*
X98460000Y-105622500D02*
X96540000Y-105622500D01*
X96540000Y-105622500D02*
X96540000Y-102937500D01*
X98460000Y-102937500D02*
X98460000Y-105622500D01*
%TO.C,U1*%
X95005000Y-102060000D02*
X95005000Y-97940000D01*
X94925000Y-102060000D02*
X95005000Y-102060000D01*
X84885000Y-102060000D02*
X84965000Y-102060000D01*
X95005000Y-97940000D02*
X94925000Y-97940000D01*
X84965000Y-97940000D02*
X84885000Y-97940000D01*
X84885000Y-97940000D02*
X84885000Y-102060000D01*
X94935000Y-102660000D02*
X95265000Y-102900000D01*
X95265000Y-102420000D01*
X94935000Y-102660000D01*
G36*
X95265000Y-102900000D02*
G01*
X94935000Y-102660000D01*
X95265000Y-102420000D01*
X95265000Y-102900000D01*
G37*
%TO.C,R2*%
X96765000Y-99272936D02*
X96765000Y-99727064D01*
X98235000Y-99272936D02*
X98235000Y-99727064D01*
%TO.C,JP1*%
X87050000Y-93000000D02*
X84250000Y-93000000D01*
X87050000Y-95000000D02*
X87050000Y-93000000D01*
X84250000Y-93000000D02*
X84250000Y-95000000D01*
X84250000Y-95000000D02*
X87050000Y-95000000D01*
%TO.C,C1*%
X96765000Y-94738748D02*
X96765000Y-95261252D01*
X98235000Y-94738748D02*
X98235000Y-95261252D01*
%TD*%
M02*
