%TF.GenerationSoftware,KiCad,Pcbnew,10.0.5*%
%TF.CreationDate,2026-08-09T17:27:45-07:00*%
%TF.ProjectId,Macintosh-Plus-USB-Adapter,4d616369-6e74-46f7-9368-2d506c75732d,rev?*%
%TF.SameCoordinates,Original*%
%TF.FileFunction,Soldermask,Bot*%
%TF.FilePolarity,Negative*%
%FSLAX46Y46*%
G04 Gerber Fmt 4.6, Leading zero omitted, Abs format (unit mm)*
G04 Created by KiCad (PCBNEW 10.0.5) date 2026-08-09 17:27:45*
%MOMM*%
%LPD*%
G01*
G04 APERTURE LIST*
G04 Aperture macros list*
%AMRoundRect*
0 Rectangle with rounded corners*
0 $1 Rounding radius*
0 $2 $3 $4 $5 $6 $7 $8 $9 X,Y pos of 4 corners*
0 Add a 4 corners polygon primitive as box body*
4,1,4,$2,$3,$4,$5,$6,$7,$8,$9,$2,$3,0*
0 Add four circle primitives for the rounded corners*
1,1,$1+$1,$2,$3*
1,1,$1+$1,$4,$5*
1,1,$1+$1,$6,$7*
1,1,$1+$1,$8,$9*
0 Add four rect primitives between the rounded corners*
20,1,$1+$1,$2,$3,$4,$5,0*
20,1,$1+$1,$4,$5,$6,$7,0*
20,1,$1+$1,$6,$7,$8,$9,0*
20,1,$1+$1,$8,$9,$2,$3,0*%
G04 Aperture macros list end*
%ADD10C,3.000000*%
%ADD11RoundRect,0.243750X0.456250X-0.243750X0.456250X0.243750X-0.456250X0.243750X-0.456250X-0.243750X0*%
%ADD12RoundRect,0.137500X0.137500X-0.662500X0.137500X0.662500X-0.137500X0.662500X-0.137500X-0.662500X0*%
%ADD13RoundRect,0.250000X-0.450000X0.350000X-0.450000X-0.350000X0.450000X-0.350000X0.450000X0.350000X0*%
%ADD14R,1.000000X1.500000*%
%ADD15R,0.850000X0.850000*%
%ADD16C,0.850000*%
%ADD17RoundRect,0.250000X-1.490000X0.673333X-1.490000X-0.673333X1.490000X-0.673333X1.490000X0.673333X0*%
%ADD18RoundRect,0.250000X-0.475000X0.337500X-0.475000X-0.337500X0.475000X-0.337500X0.475000X0.337500X0*%
G04 APERTURE END LIST*
%TO.C,JP1*%
G36*
X85500000Y-93250000D02*
G01*
X85800000Y-93250000D01*
X85800000Y-94750000D01*
X85500000Y-94750000D01*
X85500000Y-93250000D01*
G37*
%TD*%
D10*
%TO.C,J1*%
X92800000Y-93430000D03*
X92800000Y-106570000D03*
%TD*%
D11*
%TO.C,D1*%
X97500000Y-104875000D03*
X97500000Y-103000000D03*
%TD*%
D12*
%TO.C,U1*%
X94390000Y-102650000D03*
X93120000Y-102650000D03*
X91850000Y-102650000D03*
X90580000Y-102650000D03*
X89310000Y-102650000D03*
X88040000Y-102650000D03*
X86770000Y-102650000D03*
X85500000Y-102650000D03*
X85500000Y-97350000D03*
X86770000Y-97350000D03*
X88040000Y-97350000D03*
X89310000Y-97350000D03*
X90580000Y-97350000D03*
X91850000Y-97350000D03*
X93120000Y-97350000D03*
X94390000Y-97350000D03*
%TD*%
D13*
%TO.C,R2*%
X97500000Y-98500000D03*
X97500000Y-100500000D03*
%TD*%
D14*
%TO.C,JP1*%
X86300000Y-94000000D03*
X85000000Y-94000000D03*
%TD*%
D15*
%TO.C,J4*%
X83000000Y-108500000D03*
D16*
X84000000Y-108500000D03*
X85000000Y-108500000D03*
X86000000Y-108500000D03*
%TD*%
D15*
%TO.C,J3*%
X83000000Y-91500000D03*
D16*
X84000000Y-91500000D03*
X85000000Y-91500000D03*
X86000000Y-91500000D03*
%TD*%
D17*
%TO.C,J2*%
X81457500Y-95845000D03*
X81457500Y-98615000D03*
X81457500Y-101385000D03*
X81457500Y-104155000D03*
%TD*%
D18*
%TO.C,C1*%
X97500000Y-93962500D03*
X97500000Y-96037500D03*
%TD*%
M02*
