%TF.GenerationSoftware,KiCad,Pcbnew,10.0.5*%
%TF.CreationDate,2026-08-09T17:27:44-07:00*%
%TF.ProjectId,Macintosh-Plus-USB-Adapter,4d616369-6e74-46f7-9368-2d506c75732d,rev?*%
%TF.SameCoordinates,Original*%
%TF.FileFunction,Copper,L1,Top*%
%TF.FilePolarity,Positive*%
%FSLAX46Y46*%
G04 Gerber Fmt 4.6, Leading zero omitted, Abs format (unit mm)*
G04 Created by KiCad (PCBNEW 10.0.5) date 2026-08-09 17:27:44*
%MOMM*%
%LPD*%
G01*
G04 APERTURE LIST*
G04 Aperture macros list*
%AMRoundRect*
0 Rectangle with rounded corners*
0 $1 Rounding radius*
0 $2 $3 $4 $5 $6 $7 $8 $9 X,Y pos of 4 corners*
0 Add a 4 corners polygon primitive as box body*
4,1,4,$2,$3,$4,$5,$6,$7,$8,$9,$2,$3,0*
0 Add four circle primitives for the rounded corners*
1,1,$1+$1,$2,$3*
1,1,$1+$1,$4,$5*
1,1,$1+$1,$6,$7*
1,1,$1+$1,$8,$9*
0 Add four rect primitives between the rounded corners*
20,1,$1+$1,$2,$3,$4,$5,0*
20,1,$1+$1,$4,$5,$6,$7,0*
20,1,$1+$1,$6,$7,$8,$9,0*
20,1,$1+$1,$8,$9,$2,$3,0*%
G04 Aperture macros list end*
%TA.AperFunction,ComponentPad*%
%ADD10C,3.000000*%
%TD*%
%TA.AperFunction,SMDPad,CuDef*%
%ADD11RoundRect,0.250000X1.250000X-0.375000X1.250000X0.375000X-1.250000X0.375000X-1.250000X-0.375000X0*%
%TD*%
%TA.AperFunction,SMDPad,CuDef*%
%ADD12RoundRect,0.250000X-0.475000X0.337500X-0.475000X-0.337500X0.475000X-0.337500X0.475000X0.337500X0*%
%TD*%
%TA.AperFunction,SMDPad,CuDef*%
%ADD13RoundRect,0.250000X-0.450000X0.350000X-0.450000X-0.350000X0.450000X-0.350000X0.450000X0.350000X0*%
%TD*%
%TA.AperFunction,ComponentPad*%
%ADD14R,0.850000X0.850000*%
%TD*%
%TA.AperFunction,ComponentPad*%
%ADD15C,0.850000*%
%TD*%
%TA.AperFunction,SMDPad,CuDef*%
%ADD16RoundRect,0.250000X-1.490000X0.673333X-1.490000X-0.673333X1.490000X-0.673333X1.490000X0.673333X0*%
%TD*%
%TA.AperFunction,ViaPad*%
%ADD17C,0.600000*%
%TD*%
%TA.AperFunction,Conductor*%
%ADD18C,0.200000*%
%TD*%
%TA.AperFunction,Conductor*%
%ADD19C,0.400000*%
%TD*%
G04 APERTURE END LIST*
D10*
%TO.P,J1,SH,Shield_SH*%
%TO.N,GND*%
X92800000Y-93430000D03*
X92800000Y-106570000D03*
D11*
%TO.P,J1,4,GND_4*%
X89120000Y-96500000D03*
%TO.P,J1,3,D+_3*%
%TO.N,/D+*%
X89120000Y-99000000D03*
%TO.P,J1,2,D-_2*%
%TO.N,/D-*%
X89120000Y-101000000D03*
%TO.P,J1,1,VBUS_1*%
%TO.N,+5V*%
X89120000Y-103500000D03*
%TD*%
D12*
%TO.P,C2,2*%
%TO.N,Net-(U1-V33)*%
X85500000Y-98000000D03*
%TO.P,C2,1*%
%TO.N,GND*%
X85500000Y-95925000D03*
%TD*%
D13*
%TO.P,R1,1*%
%TO.N,GND*%
X85500000Y-100000000D03*
%TO.P,R1,2*%
%TO.N,Net-(U1-RST{slash}T2EX_{slash}CAP2_)*%
X85500000Y-102000000D03*
%TD*%
D14*
%TO.P,J4,1,Pin_1_1*%
%TO.N,+5V*%
X83000000Y-108500000D03*
D15*
%TO.P,J4,2,Pin_2_2*%
%TO.N,/RXD*%
X84000000Y-108500000D03*
%TO.P,J4,3,Pin_3_3*%
%TO.N,/TXD*%
X85000000Y-108500000D03*
%TO.P,J4,4,Pin_4_4*%
%TO.N,GND*%
X86000000Y-108500000D03*
%TD*%
D14*
%TO.P,J3,1,Pin_1_1*%
%TO.N,Net-(J3-Pin_1)*%
X83000000Y-91500000D03*
D15*
%TO.P,J3,2,Pin_2_2*%
%TO.N,/P3.3*%
X84000000Y-91500000D03*
%TO.P,J3,3,Pin_3_3*%
%TO.N,/P3.4*%
X85000000Y-91500000D03*
%TO.P,J3,4,Pin_4_4*%
%TO.N,GND*%
X86000000Y-91500000D03*
%TD*%
D16*
%TO.P,J2,1,1_1*%
%TO.N,GND*%
X81457500Y-94460000D03*
%TO.P,J2,2,2_2*%
%TO.N,+5V*%
X81457500Y-97230000D03*
%TO.P,J2,3,3_3*%
%TO.N,GND*%
X81457500Y-100000000D03*
%TO.P,J2,4,4_4*%
%TO.N,/P1.1*%
X81457500Y-102770000D03*
%TO.P,J2,5,5_5*%
%TO.N,/P1.4*%
X81457500Y-105540000D03*
%TD*%
D17*
%TO.N,/P1.1*%
X84138909Y-99361091D03*
%TO.N,GND*%
X90000000Y-95000000D03*
X88500000Y-107500000D03*
X95500000Y-106500000D03*
X95500000Y-92000000D03*
%TO.N,Net-(U1-RST{slash}T2EX_{slash}CAP2_)*%
X87000000Y-105000000D03*
%TO.N,+5V*%
X87250000Y-93250000D03*
%TO.N,/D-*%
X92000000Y-99000000D03*
%TO.N,/D+*%
X91000000Y-99000000D03*
%TO.N,/P1.4*%
X87500000Y-106500000D03*
%TO.N,GND*%
X89500000Y-92500000D03*
%TO.N,Net-(U1-V33)*%
X87000000Y-99900000D03*
%TO.N,+5V*%
X94000000Y-95500000D03*
%TD*%
%TO.N,GND*%
D18*
X81457500Y-100000000D02*
X82000000Y-100000000D01*
X89120000Y-96500000D02*
X86075000Y-96500000D01*
X86075000Y-96500000D02*
X85500000Y-95925000D01*
X89120000Y-95880000D02*
X90000000Y-95000000D01*
X89120000Y-96500000D02*
X89120000Y-95880000D01*
X88500000Y-105651471D02*
X88500000Y-107500000D01*
X86965686Y-104117157D02*
X88500000Y-105651471D01*
X86965686Y-101465686D02*
X86965686Y-104117157D01*
X85500000Y-100000000D02*
X86965686Y-101465686D01*
X83417500Y-92500000D02*
X81457500Y-94460000D01*
X89500000Y-92500000D02*
X83417500Y-92500000D01*
D19*
X95500000Y-92000000D02*
X95500000Y-106500000D01*
%TO.N,Net-(U1-RST{slash}T2EX_{slash}CAP2_)*%
D18*
X85500000Y-103500000D02*
X87000000Y-105000000D01*
X85500000Y-102000000D02*
X85500000Y-103500000D01*
%TO.N,/D-*%
X92000000Y-99500000D02*
X92000000Y-99000000D01*
X89120000Y-101000000D02*
X90500000Y-101000000D01*
X90500000Y-101000000D02*
X92000000Y-99500000D01*
%TO.N,/D+*%
X89120000Y-99000000D02*
X91000000Y-99000000D01*
%TO.N,Net-(U1-V33)*%
X87000000Y-99900000D02*
X87000000Y-99000000D01*
X87000000Y-99000000D02*
X86000000Y-98000000D01*
X86000000Y-98000000D02*
X85000000Y-98000000D01*
%TO.N,/P1.4*%
X87500000Y-106500000D02*
X85000000Y-106500000D01*
X85000000Y-106500000D02*
X84040000Y-105540000D01*
X84040000Y-105540000D02*
X81457500Y-105540000D01*
%TO.N,/P1.1*%
X83197500Y-102770000D02*
X81457500Y-102770000D01*
X84000000Y-101967500D02*
X83197500Y-102770000D01*
X84138909Y-99361091D02*
X84000000Y-99500000D01*
X84000000Y-99500000D02*
X84000000Y-101967500D01*
%TO.N,GND*%
X81457500Y-100000000D02*
X82957500Y-98500000D01*
X84525000Y-98475000D02*
X84525000Y-97448466D01*
X84500000Y-98500000D02*
X84525000Y-98475000D01*
X84525000Y-97448466D02*
X85500000Y-96473466D01*
X82957500Y-98500000D02*
X84500000Y-98500000D01*
X85500000Y-96473466D02*
X85500000Y-95925000D01*
%TD*%
%TA.AperFunction,Conductor*%
%TO.N,+5V*%
G36*
X98442539Y-90520185D02*
G01*
X98488294Y-90572989D01*
X98499500Y-90624500D01*
X98499500Y-109375500D01*
X98479815Y-109442539D01*
X98427011Y-109488294D01*
X98375500Y-109499500D01*
X86578772Y-109499500D01*
X86511733Y-109479815D01*
X86465978Y-109427011D01*
X86456034Y-109357853D01*
X86485059Y-109294297D01*
X86509882Y-109272398D01*
X86567023Y-109234216D01*
X86589972Y-109218883D01*
X86718883Y-109089972D01*
X86820167Y-108938389D01*
X86889933Y-108769958D01*
X86925500Y-108591154D01*
X86925500Y-108408846D01*
X86925500Y-108408843D01*
X86889934Y-108230047D01*
X86889933Y-108230046D01*
X86889933Y-108230042D01*
X86881382Y-108209397D01*
X86820168Y-108061612D01*
X86820166Y-108061608D01*
X86718886Y-107910032D01*
X86718880Y-107910024D01*
X86589975Y-107781119D01*
X86589967Y-107781113D01*
X86438391Y-107679833D01*
X86438387Y-107679831D01*
X86269962Y-107610068D01*
X86269952Y-107610065D01*
X86091156Y-107574500D01*
X86091154Y-107574500D01*
X85908846Y-107574500D01*
X85908844Y-107574500D01*
X85730047Y-107610065D01*
X85730041Y-107610067D01*
X85561605Y-107679835D01*
X85558444Y-107681525D01*
X85556600Y-107681908D01*
X85555984Y-107682164D01*
X85555935Y-107682047D01*
X85490040Y-107695761D01*
X85441556Y-107681525D01*
X85438394Y-107679835D01*
X85269958Y-107610067D01*
X85269952Y-107610065D01*
X85091156Y-107574500D01*
X85091154Y-107574500D01*
X84908846Y-107574500D01*
X84908844Y-107574500D01*
X84730047Y-107610065D01*
X84730041Y-107610067D01*
X84561605Y-107679835D01*
X84558444Y-107681525D01*
X84556600Y-107681908D01*
X84555984Y-107682164D01*
X84555935Y-107682047D01*
X84490040Y-107695761D01*
X84441556Y-107681525D01*
X84438394Y-107679835D01*
X84269958Y-107610067D01*
X84269952Y-107610065D01*
X84091156Y-107574500D01*
X84091154Y-107574500D01*
X83908846Y-107574500D01*
X83908844Y-107574500D01*
X83730048Y-107610065D01*
X83730037Y-107610068D01*
X83717867Y-107615109D01*
X83648398Y-107622573D01*
X83627089Y-107616727D01*
X83532380Y-107581403D01*
X83532372Y-107581401D01*
X83472844Y-107575000D01*
X83250000Y-107575000D01*
X83250000Y-107918983D01*
X83230315Y-107986022D01*
X83229103Y-107987873D01*
X83179830Y-108061614D01*
X83110068Y-108230037D01*
X83110065Y-108230047D01*
X83101805Y-108271570D01*
X83049728Y-108250000D01*
X82950272Y-108250000D01*
X82858386Y-108288060D01*
X82788060Y-108358386D01*
X82750000Y-108450272D01*
X82750000Y-108549728D01*
X82788060Y-108641614D01*
X82858386Y-108711940D01*
X82924696Y-108739406D01*
X82876000Y-108750000D01*
X82075000Y-108750000D01*
X82075000Y-108972844D01*
X82081401Y-109032372D01*
X82081403Y-109032379D01*
X82131645Y-109167086D01*
X82131649Y-109167093D01*
X82217809Y-109282187D01*
X82223441Y-109287819D01*
X82256926Y-109349142D01*
X82251942Y-109418834D01*
X82210070Y-109474767D01*
X82144606Y-109499184D01*
X82135760Y-109499500D01*
X80124500Y-109499500D01*
X80057461Y-109479815D01*
X80011706Y-109427011D01*
X80000500Y-109375500D01*
X80000500Y-108027155D01*
X82075000Y-108027155D01*
X82075000Y-108250000D01*
X82750000Y-108250000D01*
X82750000Y-107575000D01*
X82527155Y-107575000D01*
X82467627Y-107581401D01*
X82467620Y-107581403D01*
X82332913Y-107631645D01*
X82332906Y-107631649D01*
X82217812Y-107717809D01*
X82217809Y-107717812D01*
X82131649Y-107832906D01*
X82131645Y-107832913D01*
X82081403Y-107967620D01*
X82081401Y-107967627D01*
X82075000Y-108027155D01*
X80000500Y-108027155D01*
X80000500Y-107087833D01*
X80020185Y-107020794D01*
X80072989Y-106975039D01*
X80124500Y-106963833D01*
X82997502Y-106963833D01*
X82997508Y-106963833D01*
X83100297Y-106953333D01*
X83266834Y-106898148D01*
X83416156Y-106806046D01*
X83540212Y-106681990D01*
X83632314Y-106532668D01*
X83687499Y-106366131D01*
X83691510Y-106326863D01*
X83717905Y-106262172D01*
X83775085Y-106222020D01*
X83844896Y-106219156D01*
X83902549Y-106251784D01*
X84515139Y-106864374D01*
X84515149Y-106864385D01*
X84519479Y-106868715D01*
X84519480Y-106868716D01*
X84631284Y-106980520D01*
X84715047Y-107028879D01*
X84718095Y-107030639D01*
X84718097Y-107030641D01*
X84756151Y-107052611D01*
X84768215Y-107059577D01*
X84920943Y-107100501D01*
X84920946Y-107100501D01*
X85086653Y-107100501D01*
X85086669Y-107100500D01*
X86920234Y-107100500D01*
X86987273Y-107120185D01*
X86989125Y-107121398D01*
X87120814Y-107209390D01*
X87120827Y-107209397D01*
X87258683Y-107266498D01*
X87266503Y-107269737D01*
X87421153Y-107300499D01*
X87421156Y-107300500D01*
X87575500Y-107300500D01*
X87642539Y-107320185D01*
X87688294Y-107372989D01*
X87699500Y-107424500D01*
X87699500Y-107578846D01*
X87730261Y-107733489D01*
X87730264Y-107733501D01*
X87790602Y-107879172D01*
X87790609Y-107879185D01*
X87878210Y-108010288D01*
X87878213Y-108010292D01*
X87989707Y-108121786D01*
X87989711Y-108121789D01*
X88120814Y-108209390D01*
X88120827Y-108209397D01*
X88218853Y-108250000D01*
X88266503Y-108269737D01*
X88421153Y-108300499D01*
X88421156Y-108300500D01*
X88421158Y-108300500D01*
X88578844Y-108300500D01*
X88578845Y-108300499D01*
X88733497Y-108269737D01*
X88879179Y-108209394D01*
X89010289Y-108121789D01*
X89121789Y-108010289D01*
X89209394Y-107879179D01*
X89269737Y-107733497D01*
X89300500Y-107578842D01*
X89300500Y-107421158D01*
X89300500Y-107421155D01*
X89300499Y-107421153D01*
X89269737Y-107266503D01*
X89209794Y-107121786D01*
X89209397Y-107120827D01*
X89209390Y-107120814D01*
X89121398Y-106989125D01*
X89100520Y-106922447D01*
X89100500Y-106920234D01*
X89100500Y-105740531D01*
X89100501Y-105740518D01*
X89100501Y-105572415D01*
X89069360Y-105456197D01*
X89059577Y-105419687D01*
X89059573Y-105419680D01*
X88980524Y-105282761D01*
X88980518Y-105282753D01*
X88534445Y-104836680D01*
X88500960Y-104775357D01*
X88505944Y-104705665D01*
X88547816Y-104649732D01*
X88613280Y-104625315D01*
X88622126Y-104624999D01*
X88870000Y-104624999D01*
X89370000Y-104624999D01*
X90419972Y-104624999D01*
X90419986Y-104624998D01*
X90522697Y-104614505D01*
X90689119Y-104559358D01*
X90689124Y-104559356D01*
X90838345Y-104467315D01*
X90962315Y-104343345D01*
X91054356Y-104194124D01*
X91054358Y-104194119D01*
X91109505Y-104027697D01*
X91109506Y-104027690D01*
X91119999Y-103924986D01*
X91120000Y-103924973D01*
X91120000Y-103750000D01*
X89370000Y-103750000D01*
X89370000Y-104624999D01*
X88870000Y-104624999D01*
X88870000Y-103250000D01*
X89370000Y-103250000D01*
X91119999Y-103250000D01*
X91119999Y-103075028D01*
X91119998Y-103075013D01*
X91109505Y-102972302D01*
X91054358Y-102805880D01*
X91054356Y-102805875D01*
X90962315Y-102656654D01*
X90838345Y-102532684D01*
X90689124Y-102440643D01*
X90689119Y-102440641D01*
X90522697Y-102385494D01*
X90522690Y-102385493D01*
X90419986Y-102375000D01*
X89370000Y-102375000D01*
X89370000Y-103250000D01*
X88870000Y-103250000D01*
X88870000Y-102375000D01*
X87820028Y-102375000D01*
X87820012Y-102375001D01*
X87717297Y-102385494D01*
X87716132Y-102385744D01*
X87715396Y-102385688D01*
X87710569Y-102386182D01*
X87710480Y-102385320D01*
X87646458Y-102380523D01*
X87590667Y-102338462D01*
X87566473Y-102272915D01*
X87566186Y-102264489D01*
X87566186Y-102236024D01*
X87585871Y-102168985D01*
X87638675Y-102123230D01*
X87707833Y-102113286D01*
X87716160Y-102114775D01*
X87717193Y-102114995D01*
X87717203Y-102114999D01*
X87819991Y-102125500D01*
X90420008Y-102125499D01*
X90522797Y-102114999D01*
X90689334Y-102059814D01*
X90838656Y-101967712D01*
X90962712Y-101843656D01*
X91054814Y-101694334D01*
X91109999Y-101527797D01*
X91120500Y-101425009D01*
X91120499Y-101280096D01*
X91140183Y-101213057D01*
X91156813Y-101192420D01*
X92358506Y-99990728D01*
X92358511Y-99990724D01*
X92368714Y-99980520D01*
X92368716Y-99980520D01*
X92480520Y-99868716D01*
X92559577Y-99731784D01*
X92594754Y-99600501D01*
X92600500Y-99579058D01*
X92600500Y-99579055D01*
X92601561Y-99571000D01*
X92603017Y-99571191D01*
X92620185Y-99512726D01*
X92621398Y-99510874D01*
X92709390Y-99379185D01*
X92709390Y-99379184D01*
X92709394Y-99379179D01*
X92769737Y-99233497D01*
X92800500Y-99078842D01*
X92800500Y-98921158D01*
X92800500Y-98921155D01*
X92800499Y-98921153D01*
X92769738Y-98766510D01*
X92769737Y-98766503D01*
X92769735Y-98766498D01*
X92709397Y-98620827D01*
X92709390Y-98620814D01*
X92621789Y-98489711D01*
X92621786Y-98489707D01*
X92510292Y-98378213D01*
X92510288Y-98378210D01*
X92379185Y-98290609D01*
X92379172Y-98290602D01*
X92233501Y-98230264D01*
X92233489Y-98230261D01*
X92078845Y-98199500D01*
X92078842Y-98199500D01*
X91921158Y-98199500D01*
X91921155Y-98199500D01*
X91766510Y-98230261D01*
X91766498Y-98230264D01*
X91620827Y-98290602D01*
X91620814Y-98290609D01*
X91568891Y-98325304D01*
X91502214Y-98346182D01*
X91434833Y-98327698D01*
X91431109Y-98325304D01*
X91379185Y-98290609D01*
X91379172Y-98290602D01*
X91233501Y-98230264D01*
X91233489Y-98230261D01*
X91078845Y-98199500D01*
X91078842Y-98199500D01*
X91056868Y-98199500D01*
X90989829Y-98179815D01*
X90968653Y-98160616D01*
X90967819Y-98161451D01*
X90838657Y-98032289D01*
X90838656Y-98032288D01*
X90745888Y-97975069D01*
X90689336Y-97940187D01*
X90689331Y-97940185D01*
X90687862Y-97939698D01*
X90522797Y-97885001D01*
X90522795Y-97885000D01*
X90420010Y-97874500D01*
X87819998Y-97874500D01*
X87819981Y-97874501D01*
X87717203Y-97885000D01*
X87717200Y-97885001D01*
X87550668Y-97940185D01*
X87550663Y-97940187D01*
X87401342Y-98032289D01*
X87277288Y-98156343D01*
X87277285Y-98156347D01*
X87255960Y-98190921D01*
X87204012Y-98237646D01*
X87135050Y-98248867D01*
X87070968Y-98221024D01*
X87062741Y-98213505D01*
X86761818Y-97912582D01*
X86728333Y-97851259D01*
X86725499Y-97824901D01*
X86725499Y-97612498D01*
X86725498Y-97612481D01*
X86714999Y-97509703D01*
X86714998Y-97509700D01*
X86703392Y-97474676D01*
X86659814Y-97343166D01*
X86626771Y-97289595D01*
X86608332Y-97222204D01*
X86629255Y-97155541D01*
X86682897Y-97110771D01*
X86732311Y-97100500D01*
X87064551Y-97100500D01*
X87131590Y-97120185D01*
X87177345Y-97172989D01*
X87182256Y-97185493D01*
X87185023Y-97193844D01*
X87185186Y-97194334D01*
X87277288Y-97343656D01*
X87401344Y-97467712D01*
X87550666Y-97559814D01*
X87717203Y-97614999D01*
X87819991Y-97625500D01*
X90420008Y-97625499D01*
X90522797Y-97614999D01*
X90689334Y-97559814D01*
X90838656Y-97467712D01*
X90962712Y-97343656D01*
X91054814Y-97194334D01*
X91109999Y-97027797D01*
X91120500Y-96925009D01*
X91120499Y-96074992D01*
X91109999Y-95972203D01*
X91054814Y-95805666D01*
X90962712Y-95656344D01*
X90838656Y-95532288D01*
X90838655Y-95532287D01*
X90804364Y-95511136D01*
X90775057Y-95493060D01*
X90728333Y-95441114D01*
X90717110Y-95372151D01*
X90725591Y-95340074D01*
X90769737Y-95233497D01*
X90800500Y-95078842D01*
X90800500Y-94921158D01*
X90800500Y-94921155D01*
X90800499Y-94921153D01*
X90796825Y-94902685D01*
X90769737Y-94766503D01*
X90763668Y-94751851D01*
X90709397Y-94620827D01*
X90709390Y-94620814D01*
X90621789Y-94489711D01*
X90621786Y-94489707D01*
X90510292Y-94378213D01*
X90510288Y-94378210D01*
X90379185Y-94290609D01*
X90379172Y-94290602D01*
X90233501Y-94230264D01*
X90233489Y-94230261D01*
X90078845Y-94199500D01*
X90078842Y-94199500D01*
X89921158Y-94199500D01*
X89921155Y-94199500D01*
X89766510Y-94230261D01*
X89766498Y-94230264D01*
X89620827Y-94290602D01*
X89620814Y-94290609D01*
X89489711Y-94378210D01*
X89489707Y-94378213D01*
X89378213Y-94489707D01*
X89378210Y-94489711D01*
X89290609Y-94620814D01*
X89290602Y-94620827D01*
X89230264Y-94766498D01*
X89230261Y-94766508D01*
X89199361Y-94921850D01*
X89166976Y-94983761D01*
X89165425Y-94985339D01*
X88812583Y-95338181D01*
X88751260Y-95371666D01*
X88724902Y-95374500D01*
X87819998Y-95374500D01*
X87819980Y-95374501D01*
X87717203Y-95385000D01*
X87717200Y-95385001D01*
X87550668Y-95440185D01*
X87550663Y-95440187D01*
X87401342Y-95532289D01*
X87277289Y-95656342D01*
X87185185Y-95805667D01*
X87182256Y-95814507D01*
X87142482Y-95871951D01*
X87077965Y-95898772D01*
X87064551Y-95899500D01*
X86849499Y-95899500D01*
X86782460Y-95879815D01*
X86736705Y-95827011D01*
X86725499Y-95775500D01*
X86725499Y-95537498D01*
X86725498Y-95537481D01*
X86714999Y-95434703D01*
X86714998Y-95434700D01*
X86713606Y-95430499D01*
X86659814Y-95268166D01*
X86567712Y-95118844D01*
X86443656Y-94994788D01*
X86294334Y-94902686D01*
X86127797Y-94847501D01*
X86127795Y-94847500D01*
X86025010Y-94837000D01*
X84974998Y-94837000D01*
X84974980Y-94837001D01*
X84872203Y-94847500D01*
X84872200Y-94847501D01*
X84705668Y-94902685D01*
X84705663Y-94902687D01*
X84556342Y-94994789D01*
X84432289Y-95118842D01*
X84340187Y-95268163D01*
X84340185Y-95268168D01*
X84334233Y-95286131D01*
X84285001Y-95434703D01*
X84285001Y-95434704D01*
X84285000Y-95434704D01*
X84274500Y-95537483D01*
X84274500Y-96312501D01*
X84274501Y-96312519D01*
X84285000Y-96415296D01*
X84285001Y-96415299D01*
X84340185Y-96581831D01*
X84340190Y-96581842D01*
X84365856Y-96623452D01*
X84384297Y-96690844D01*
X84363375Y-96757508D01*
X84347999Y-96776230D01*
X84199221Y-96925009D01*
X84156286Y-96967944D01*
X84156284Y-96967946D01*
X84100382Y-97023848D01*
X84044480Y-97079749D01*
X84039027Y-97089195D01*
X84032500Y-97100501D01*
X83965423Y-97216681D01*
X83924499Y-97369409D01*
X83924499Y-97369411D01*
X83924499Y-97407637D01*
X83904814Y-97474676D01*
X83852010Y-97520431D01*
X83782852Y-97530375D01*
X83719296Y-97501350D01*
X83712818Y-97495318D01*
X83697500Y-97480000D01*
X81581500Y-97480000D01*
X81514461Y-97460315D01*
X81468706Y-97407511D01*
X81457500Y-97356000D01*
X81457500Y-97104000D01*
X81477185Y-97036961D01*
X81529989Y-96991206D01*
X81581500Y-96980000D01*
X83697499Y-96980000D01*
X83697499Y-96506694D01*
X83697498Y-96506679D01*
X83687005Y-96403968D01*
X83631858Y-96237546D01*
X83631856Y-96237541D01*
X83539815Y-96088320D01*
X83415844Y-95964349D01*
X83415840Y-95964346D01*
X83393929Y-95950831D01*
X83347204Y-95898883D01*
X83335983Y-95829921D01*
X83363826Y-95765839D01*
X83393928Y-95739756D01*
X83416156Y-95726046D01*
X83540212Y-95601990D01*
X83632314Y-95452668D01*
X83687499Y-95286131D01*
X83698000Y-95183343D01*
X83697999Y-93736658D01*
X83687499Y-93633869D01*
X83632314Y-93467332D01*
X83556780Y-93344871D01*
X83538341Y-93277481D01*
X83559264Y-93210818D01*
X83574635Y-93192099D01*
X83629919Y-93136817D01*
X83691243Y-93103333D01*
X83717599Y-93100500D01*
X88920234Y-93100500D01*
X88987273Y-93120185D01*
X88989125Y-93121398D01*
X89120814Y-93209390D01*
X89120827Y-93209397D01*
X89266498Y-93269735D01*
X89266503Y-93269737D01*
X89412974Y-93298872D01*
X89421153Y-93300499D01*
X89421156Y-93300500D01*
X89421158Y-93300500D01*
X89578844Y-93300500D01*
X89578845Y-93300499D01*
X89587025Y-93298872D01*
X90799500Y-93298872D01*
X90799500Y-93561127D01*
X90822611Y-93736664D01*
X90833730Y-93821116D01*
X90901602Y-94074418D01*
X90901605Y-94074428D01*
X91001953Y-94316690D01*
X91001958Y-94316700D01*
X91133075Y-94543803D01*
X91292718Y-94751851D01*
X91292726Y-94751860D01*
X91478140Y-94937274D01*
X91478148Y-94937281D01*
X91686196Y-95096924D01*
X91913299Y-95228041D01*
X91913309Y-95228046D01*
X92155571Y-95328394D01*
X92155581Y-95328398D01*
X92408884Y-95396270D01*
X92668880Y-95430500D01*
X92668887Y-95430500D01*
X92931113Y-95430500D01*
X92931120Y-95430500D01*
X93191116Y-95396270D01*
X93444419Y-95328398D01*
X93686697Y-95228043D01*
X93913803Y-95096924D01*
X94121851Y-94937282D01*
X94121855Y-94937277D01*
X94121860Y-94937274D01*
X94307274Y-94751860D01*
X94307277Y-94751855D01*
X94307282Y-94751851D01*
X94466924Y-94543803D01*
X94532318Y-94430537D01*
X94568113Y-94368538D01*
X94618679Y-94320322D01*
X94687286Y-94307098D01*
X94752151Y-94333066D01*
X94792680Y-94389980D01*
X94799500Y-94430537D01*
X94799500Y-105569462D01*
X94779815Y-105636501D01*
X94727011Y-105682256D01*
X94657853Y-105692200D01*
X94594297Y-105663175D01*
X94568113Y-105631462D01*
X94466924Y-105456196D01*
X94307281Y-105248148D01*
X94307274Y-105248140D01*
X94121860Y-105062726D01*
X94121851Y-105062718D01*
X93913803Y-104903075D01*
X93686700Y-104771958D01*
X93686690Y-104771953D01*
X93444428Y-104671605D01*
X93444421Y-104671603D01*
X93444419Y-104671602D01*
X93191116Y-104603730D01*
X93133339Y-104596123D01*
X92931127Y-104569500D01*
X92931120Y-104569500D01*
X92668880Y-104569500D01*
X92668872Y-104569500D01*
X92437772Y-104599926D01*
X92408884Y-104603730D01*
X92155581Y-104671602D01*
X92155571Y-104671605D01*
X91913309Y-104771953D01*
X91913299Y-104771958D01*
X91686196Y-104903075D01*
X91478148Y-105062718D01*
X91292718Y-105248148D01*
X91133075Y-105456196D01*
X91001958Y-105683299D01*
X91001953Y-105683309D01*
X90901605Y-105925571D01*
X90901602Y-105925581D01*
X90833730Y-106178885D01*
X90799500Y-106438872D01*
X90799500Y-106701127D01*
X90822943Y-106879185D01*
X90833730Y-106961116D01*
X90901602Y-107214418D01*
X90901605Y-107214428D01*
X91001953Y-107456690D01*
X91001958Y-107456700D01*
X91133075Y-107683803D01*
X91292718Y-107891851D01*
X91292726Y-107891860D01*
X91478140Y-108077274D01*
X91478148Y-108077281D01*
X91686196Y-108236924D01*
X91913299Y-108368041D01*
X91913309Y-108368046D01*
X92155571Y-108468394D01*
X92155581Y-108468398D01*
X92408884Y-108536270D01*
X92668880Y-108570500D01*
X92668887Y-108570500D01*
X92931113Y-108570500D01*
X92931120Y-108570500D01*
X93191116Y-108536270D01*
X93444419Y-108468398D01*
X93686697Y-108368043D01*
X93913803Y-108236924D01*
X94121851Y-108077282D01*
X94121855Y-108077277D01*
X94121860Y-108077274D01*
X94307274Y-107891860D01*
X94307277Y-107891855D01*
X94307282Y-107891851D01*
X94466924Y-107683803D01*
X94598043Y-107456697D01*
X94611380Y-107424500D01*
X94698394Y-107214428D01*
X94698398Y-107214419D01*
X94723947Y-107119066D01*
X94760311Y-107059408D01*
X94823157Y-107028879D01*
X94892533Y-107037173D01*
X94931402Y-107063481D01*
X94989707Y-107121786D01*
X94989711Y-107121789D01*
X95120814Y-107209390D01*
X95120827Y-107209397D01*
X95258683Y-107266498D01*
X95266503Y-107269737D01*
X95421153Y-107300499D01*
X95421156Y-107300500D01*
X95421158Y-107300500D01*
X95578844Y-107300500D01*
X95578845Y-107300499D01*
X95733497Y-107269737D01*
X95867026Y-107214428D01*
X95879172Y-107209397D01*
X95879172Y-107209396D01*
X95879179Y-107209394D01*
X96010289Y-107121789D01*
X96121789Y-107010289D01*
X96209394Y-106879179D01*
X96269737Y-106733497D01*
X96300500Y-106578842D01*
X96300500Y-106421158D01*
X96300500Y-106421155D01*
X96300499Y-106421153D01*
X96289554Y-106366129D01*
X96269737Y-106266503D01*
X96251312Y-106222020D01*
X96209939Y-106122136D01*
X96200500Y-106074684D01*
X96200500Y-92425316D01*
X96209939Y-92377864D01*
X96249421Y-92282544D01*
X96269737Y-92233497D01*
X96300500Y-92078842D01*
X96300500Y-91921158D01*
X96300500Y-91921155D01*
X96300499Y-91921153D01*
X96274531Y-91790606D01*
X96269737Y-91766503D01*
X96263443Y-91751308D01*
X96209397Y-91620827D01*
X96209390Y-91620814D01*
X96121789Y-91489711D01*
X96121786Y-91489707D01*
X96010292Y-91378213D01*
X96010288Y-91378210D01*
X95879185Y-91290609D01*
X95879172Y-91290602D01*
X95733501Y-91230264D01*
X95733489Y-91230261D01*
X95578845Y-91199500D01*
X95578842Y-91199500D01*
X95421158Y-91199500D01*
X95421155Y-91199500D01*
X95266510Y-91230261D01*
X95266498Y-91230264D01*
X95120827Y-91290602D01*
X95120814Y-91290609D01*
X94989711Y-91378210D01*
X94989707Y-91378213D01*
X94878213Y-91489707D01*
X94878210Y-91489711D01*
X94790609Y-91620814D01*
X94790602Y-91620827D01*
X94730264Y-91766498D01*
X94730261Y-91766510D01*
X94699500Y-91921153D01*
X94699500Y-92078846D01*
X94730261Y-92233489D01*
X94730264Y-92233501D01*
X94790061Y-92377864D01*
X94799500Y-92425316D01*
X94799500Y-92429462D01*
X94779815Y-92496501D01*
X94727011Y-92542256D01*
X94657853Y-92552200D01*
X94594297Y-92523175D01*
X94568113Y-92491462D01*
X94466924Y-92316196D01*
X94317010Y-92120827D01*
X94307282Y-92108149D01*
X94307281Y-92108148D01*
X94307274Y-92108140D01*
X94121860Y-91922726D01*
X94121851Y-91922718D01*
X93913803Y-91763075D01*
X93686700Y-91631958D01*
X93686690Y-91631953D01*
X93444428Y-91531605D01*
X93444421Y-91531603D01*
X93444419Y-91531602D01*
X93191116Y-91463730D01*
X93133339Y-91456123D01*
X92931127Y-91429500D01*
X92931120Y-91429500D01*
X92668880Y-91429500D01*
X92668872Y-91429500D01*
X92437772Y-91459926D01*
X92408884Y-91463730D01*
X92155581Y-91531602D01*
X92155571Y-91531605D01*
X91913309Y-91631953D01*
X91913299Y-91631958D01*
X91686196Y-91763075D01*
X91478148Y-91922718D01*
X91292718Y-92108148D01*
X91133075Y-92316196D01*
X91001958Y-92543299D01*
X91001953Y-92543309D01*
X90901605Y-92785571D01*
X90901602Y-92785581D01*
X90834459Y-93036166D01*
X90833730Y-93038885D01*
X90799500Y-93298872D01*
X89587025Y-93298872D01*
X89733497Y-93269737D01*
X89879179Y-93209394D01*
X89896468Y-93197841D01*
X89905632Y-93191719D01*
X89941569Y-93167705D01*
X90010289Y-93121789D01*
X90121789Y-93010289D01*
X90209394Y-92879179D01*
X90269737Y-92733497D01*
X90300500Y-92578842D01*
X90300500Y-92421158D01*
X90300500Y-92421155D01*
X90300499Y-92421153D01*
X90279622Y-92316197D01*
X90269737Y-92266503D01*
X90228658Y-92167328D01*
X90209397Y-92120827D01*
X90209390Y-92120814D01*
X90121789Y-91989711D01*
X90121786Y-91989707D01*
X90010292Y-91878213D01*
X90010288Y-91878210D01*
X89879185Y-91790609D01*
X89879172Y-91790602D01*
X89733501Y-91730264D01*
X89733489Y-91730261D01*
X89578845Y-91699500D01*
X89578842Y-91699500D01*
X89421158Y-91699500D01*
X89421155Y-91699500D01*
X89266510Y-91730261D01*
X89266498Y-91730264D01*
X89120827Y-91790602D01*
X89120814Y-91790609D01*
X88989125Y-91878602D01*
X88922447Y-91899480D01*
X88920234Y-91899500D01*
X87015260Y-91899500D01*
X86948221Y-91879815D01*
X86902466Y-91827011D01*
X86892522Y-91757853D01*
X86893643Y-91751308D01*
X86925500Y-91591156D01*
X86925500Y-91408843D01*
X86889934Y-91230047D01*
X86889933Y-91230046D01*
X86889933Y-91230042D01*
X86877282Y-91199500D01*
X86820168Y-91061612D01*
X86820166Y-91061608D01*
X86718886Y-90910032D01*
X86718880Y-90910024D01*
X86589975Y-90781119D01*
X86589967Y-90781113D01*
X86509882Y-90727602D01*
X86465076Y-90673990D01*
X86456369Y-90604665D01*
X86486523Y-90541638D01*
X86545966Y-90504918D01*
X86578772Y-90500500D01*
X98375500Y-90500500D01*
X98442539Y-90520185D01*
G37*
%TD.AperFunction*%
%TD*%
M02*
